PathFileType	4	(X/Y/Z)	F:\Vicon\SynologyDrive\Marcel_BSc\Ayumi_25_09_2024\25-09-2024\conventional_dl_80kg03.trc
DataRate	CameraRate	NumFrames	NumMarkers	Units	OrigDataRate	OrigDataStartFrame	OrigNumFrames
200.0	200.0	294	1	mm	200.0	1	2801	
Frame#	Time	RBAR			
		X1	Y1	Z1	
1	-0.005	185.32271	246.90355	-1697.8633
2	0	185.32521	246.91064	-1697.8665
3	0.005	185.3253	246.90453	-1697.8687
4	0.01	185.31847	246.91132	-1697.8726
5	0.015	185.32277	246.90967	-1697.8704
6	0.02	185.3206	246.90884	-1697.8606
7	0.025	185.32118	246.90524	-1697.8606
8	0.03	185.31833	246.90326	-1697.86
9	0.035	185.31758	246.90448	-1697.8528
10	0.04	185.31766	246.90454	-1697.8502
11	0.045	185.31665	246.89964	-1697.8479
12	0.05	185.31595	246.9017	-1697.8469
13	0.055	185.31328	246.90125	-1697.8455
14	0.06	185.3093	246.89642	-1697.8429
15	0.065	185.31139	246.90099	-1697.8429
16	0.07	185.30699	246.8961	-1697.8461
17	0.075	185.31081	246.896	-1697.8422
18	0.08	185.31047	246.90318	-1697.8416
19	0.085	185.31506	246.89877	-1697.842
20	0.09	185.31818	246.9006	-1697.8414
21	0.095	185.31863	246.89307	-1697.8411
22	0.1	185.31552	246.90202	-1697.8403
23	0.105	185.3201	246.90358	-1697.8412
24	0.11	185.32217	246.89932	-1697.8429
25	0.115	185.31836	246.90211	-1697.8435
26	0.12	185.3231	246.89839	-1697.8385
27	0.125	185.32327	246.90352	-1697.8448
28	0.13	185.32555	246.89833	-1697.8452
29	0.135	185.33392	246.89537	-1697.847
30	0.14	185.33209	246.89264	-1697.8403
31	0.145	185.33025	246.89888	-1697.8379
32	0.15	185.33284	246.89555	-1697.8396
33	0.155	185.33179	246.89957	-1697.8419
34	0.16	185.33434	246.90163	-1697.8376
35	0.165	185.34198	246.89775	-1697.8333
36	0.17	185.33759	246.90126	-1697.8381
37	0.175	185.3329	246.90012	-1697.8372
38	0.18	185.33357	246.89981	-1697.8362
39	0.185	185.33278	246.89835	-1697.838
40	0.19	185.34273	246.89455	-1697.8344
41	0.195	185.35106	246.89891	-1697.8402
42	0.2	185.34819	246.89651	-1697.8407
43	0.205	185.35513	246.89262	-1697.8472
44	0.21	185.35709	246.89902	-1697.842
45	0.215	185.35109	246.90245	-1697.8448
46	0.22	185.35684	246.90283	-1697.8486
47	0.225	185.3609	246.90196	-1697.8473
48	0.23	185.36099	246.90021	-1697.8423
49	0.235	185.36644	246.90245	-1697.8461
50	0.24	185.36867	246.90433	-1697.8568
51	0.245	185.37355	246.90242	-1697.8417
52	0.25	185.37735	246.89798	-1697.8468
53	0.255	185.3783	246.90302	-1697.8431
54	0.26	185.37677	246.90192	-1697.8464
55	0.265	185.37541	246.90804	-1697.8481
56	0.27	185.37613	246.90134	-1697.8451
57	0.275	185.3786	246.89803	-1697.8408
58	0.28	185.37648	246.90491	-1697.8376
59	0.285	185.37903	246.90215	-1697.8396
60	0.29	185.377	246.89969	-1697.8314
61	0.295	185.38237	246.90569	-1697.8353
62	0.3	185.38235	246.90677	-1697.8417
63	0.305	185.39136	246.90088	-1697.8445
64	0.31	185.38712	246.9063	-1697.8442
65	0.315	185.39713	246.90817	-1697.8419
66	0.32	185.40074	246.9126	-1697.8462
67	0.325	185.4072	246.90788	-1697.8408
68	0.33	185.41606	246.90994	-1697.8466
69	0.335	185.41541	246.90868	-1697.8508
70	0.34	185.42265	246.9082	-1697.8469
71	0.345	185.42337	246.9081	-1697.8469
72	0.35	185.42929	246.91544	-1697.8434
73	0.355	185.43164	246.91089	-1697.8485
74	0.36	185.44125	246.90976	-1697.843
75	0.365	185.44034	246.91684	-1697.8522
76	0.37	185.44409	246.91766	-1697.8491
77	0.375	185.43967	246.9174	-1697.8495
78	0.38	185.44505	246.91399	-1697.8456
79	0.385	185.44475	246.91995	-1697.849
80	0.39	185.4521	246.91322	-1697.8445
81	0.395	185.45015	246.92097	-1697.8508
82	0.4	185.44731	246.91948	-1697.8483
83	0.405	185.45609	246.91928	-1697.8505
84	0.41	185.44978	246.91998	-1697.8481
85	0.415	185.4525	246.92215	-1697.8444
86	0.42	185.4575	246.92572	-1697.8489
87	0.425	185.4576	246.92348	-1697.8412
88	0.43	185.46703	246.92171	-1697.8455
89	0.435	185.47169	246.91974	-1697.8448
90	0.44	185.47076	246.92006	-1697.8467
91	0.445	185.48335	246.92325	-1697.8492
92	0.45	185.48454	246.92323	-1697.8489
93	0.455	185.49133	246.91951	-1697.848
94	0.46	185.4901	246.92377	-1697.8491
95	0.465	185.49586	246.91827	-1697.8491
96	0.47	185.49895	246.91617	-1697.851
97	0.475	185.4957	246.91331	-1697.8549
98	0.48	185.50186	246.91534	-1697.8467
99	0.485	185.49364	246.91354	-1697.8479
100	0.49	185.49585	246.90939	-1697.849
101	0.495	185.50531	246.91029	-1697.8411
102	0.5	185.50226	246.91577	-1697.8467
103	0.505	185.51326	246.91534	-1697.8458
104	0.51	185.50826	246.90607	-1697.8372
105	0.515	185.51112	246.9084	-1697.8384
106	0.52	185.51282	246.90033	-1697.8397
107	0.525	185.51917	246.90732	-1697.849
108	0.53	185.51219	246.90419	-1697.837
109	0.535	185.51814	246.90814	-1697.8358
110	0.54	185.5271	246.911	-1697.8328
111	0.545	185.52708	246.9073	-1697.8276
112	0.55	185.53117	246.90375	-1697.8362
113	0.555	185.53563	246.90118	-1697.8313
114	0.56	185.53967	246.90147	-1697.8337
115	0.565	185.54794	246.89638	-1697.8325
116	0.57	185.54536	246.89867	-1697.824
117	0.575	185.55692	246.8999	-1697.8241
118	0.58	185.55553	246.89746	-1697.8329
119	0.585	185.55199	246.89818	-1697.8405
120	0.59	185.55501	246.89957	-1697.8379
121	0.595	185.55736	246.89539	-1697.8352
122	0.6	185.56505	246.89317	-1697.8344
123	0.605	185.56761	246.89452	-1697.8346
124	0.61	185.56779	246.90028	-1697.8422
125	0.615	185.567	246.89996	-1697.8375
126	0.62	185.57207	246.90314	-1697.8409
127	0.625	185.56795	246.89633	-1697.84
128	0.63	185.57507	246.89868	-1697.84
129	0.635	185.57394	246.90233	-1697.8412
130	0.64	185.58215	246.90013	-1697.8413
131	0.645	185.58827	246.90222	-1697.8411
132	0.65	185.59047	246.91263	-1697.8429
133	0.655	185.59158	246.90431	-1697.8335
134	0.66	185.5968	246.90965	-1697.8378
135	0.665	185.60553	246.90916	-1697.8425
136	0.67	185.60292	246.90279	-1697.8452
137	0.675	185.61102	246.90468	-1697.8458
138	0.68	185.60921	246.90689	-1697.8442
139	0.685	185.61078	246.90521	-1697.8441
140	0.69	185.61452	246.90732	-1697.8531
141	0.695	185.60692	246.90765	-1697.8518
142	0.7	185.61107	246.8981	-1697.8507
143	0.705	185.61079	246.90414	-1697.8492
144	0.71	185.6122	246.91086	-1697.8461
145	0.715	185.61348	246.91348	-1697.8481
146	0.72	185.62247	246.91302	-1697.845
147	0.725	185.61897	246.91162	-1697.8374
148	0.73	185.6219	246.91484	-1697.8352
149	0.735	185.62828	246.91281	-1697.833
150	0.74	185.61923	246.91168	-1697.8333
151	0.745	185.61877	246.92107	-1697.8335
152	0.75	185.62285	246.91324	-1697.8346
153	0.755	185.62027	246.92062	-1697.8307
154	0.76	185.62234	246.91202	-1697.8312
155	0.765	185.62247	246.9174	-1697.8358
156	0.77	185.6256	246.91809	-1697.8348
157	0.775	185.62448	246.92302	-1697.8439
158	0.78	185.63165	246.92113	-1697.8433
159	0.785	185.62985	246.91846	-1697.8394
160	0.79	185.63316	246.91998	-1697.8392
161	0.795	185.634	246.92282	-1697.8441
162	0.8	185.64279	246.92371	-1697.8429
163	0.805	185.64391	246.92937	-1697.8442
164	0.81	185.64296	246.92842	-1697.8384
165	0.815	185.65018	246.92711	-1697.8419
166	0.82	185.64294	246.92661	-1697.8442
167	0.825	185.64394	246.92456	-1697.8416
168	0.83	185.64862	246.92488	-1697.8387
169	0.835	185.63971	246.92516	-1697.84
170	0.84	185.64059	246.91832	-1697.8379
171	0.845	185.64232	246.92079	-1697.8441
172	0.85	185.63626	246.91499	-1697.8429
173	0.855	185.63721	246.91042	-1697.8451
174	0.86	185.6225	246.90698	-1697.8484
175	0.865	185.62498	246.90152	-1697.8452
176	0.87	185.63017	246.90192	-1697.8417
177	0.875	185.63646	246.89719	-1697.8372
178	0.88	185.63684	246.90013	-1697.8417
179	0.885	185.63336	246.90047	-1697.8407
180	0.89	185.64243	246.89583	-1697.8373
181	0.895	185.64388	246.89459	-1697.8425
182	0.9	185.64882	246.89566	-1697.8447
183	0.905	185.64667	246.89394	-1697.8431
184	0.91	185.6557	246.89577	-1697.8475
185	0.915	185.64145	246.89845	-1697.8405
186	0.92	185.64578	246.89406	-1697.8428
187	0.925	185.64383	246.8994	-1697.8383
188	0.93	185.65028	246.89961	-1697.8396
189	0.935	185.65117	246.89871	-1697.8416
190	0.94	185.65179	246.90196	-1697.8411
191	0.945	185.64745	246.90736	-1697.8427
192	0.95	185.64641	246.89841	-1697.8384
193	0.955	185.64087	246.90311	-1697.837
194	0.96	185.65302	246.90408	-1697.8379
195	0.965	185.64246	246.89833	-1697.8381
196	0.97	185.64259	246.90329	-1697.838
197	0.975	185.64204	246.90015	-1697.8389
198	0.98	185.64764	246.89923	-1697.834
199	0.985	185.64127	246.89626	-1697.8401
200	0.99	185.64818	246.89662	-1697.8427
201	0.995	185.64691	246.90012	-1697.8337
202	1	185.64671	246.90355	-1697.8401
203	1.005	185.65068	246.90143	-1697.8406
204	1.01	185.64026	246.90259	-1697.8448
205	1.015	185.64008	246.9052	-1697.8322
206	1.02	185.63742	246.89351	-1697.8326
207	1.025	185.63664	246.9006	-1697.8298
208	1.03	185.64119	246.90662	-1697.8413
209	1.035	185.64015	246.90491	-1697.8359
210	1.04	185.63164	246.90274	-1697.8264
211	1.045	185.62512	246.90746	-1697.838
212	1.05	185.63197	246.90616	-1697.8279
213	1.055	185.62393	246.90651	-1697.8247
214	1.06	185.62524	246.90366	-1697.829
215	1.065	185.6136	246.90474	-1697.8256
216	1.07	185.62219	246.90085	-1697.8247
217	1.075	185.61998	246.90129	-1697.8191
218	1.08	185.62326	246.90405	-1697.8175
219	1.085	185.61977	246.90106	-1697.8186
220	1.09	185.61659	246.89801	-1697.8232
221	1.095	185.61957	246.89973	-1697.8193
222	1.1	185.61807	246.90836	-1697.8292
223	1.105	185.6217	246.90492	-1697.8239
224	1.11	185.617	246.9043	-1697.8248
225	1.115	185.60855	246.9081	-1697.8362
226	1.12	185.61758	246.90872	-1697.8365
227	1.125	185.61632	246.90881	-1697.8402
228	1.13	185.62001	246.90517	-1697.842
229	1.135	185.61488	246.90883	-1697.8439
230	1.14	185.61397	246.9071	-1697.8424
231	1.145	185.61307	246.90263	-1697.8491
232	1.15	185.61171	246.90002	-1697.8463
233	1.155	185.61404	246.90007	-1697.8397
234	1.16	185.61044	246.89613	-1697.8379
235	1.165	185.60928	246.89304	-1697.8452
236	1.17	185.60466	246.90173	-1697.843
237	1.175	185.60474	246.90347	-1697.8469
238	1.18	185.60085	246.90076	-1697.8456
239	1.185	185.60365	246.89935	-1697.8317
240	1.19	185.59746	246.9071	-1697.8309
241	1.195	185.59242	246.90076	-1697.8457
242	1.2	185.59647	246.9075	-1697.8306
243	1.205	185.60449	246.90527	-1697.8406
244	1.21	185.59767	246.90599	-1697.8337
245	1.215	185.59933	246.90936	-1697.8403
246	1.22	185.60338	246.90329	-1697.8374
247	1.225	185.59747	246.90526	-1697.8412
248	1.23	185.59282	246.90402	-1697.8407
249	1.235	185.59621	246.90649	-1697.8481
250	1.24	185.59868	246.90302	-1697.8503
251	1.245	185.59007	246.90224	-1697.8451
252	1.25	185.58932	246.90198	-1697.8434
253	1.255	185.58569	246.90131	-1697.8407
254	1.26	185.58755	246.90857	-1697.8435
255	1.265	185.5779	246.90594	-1697.8376
256	1.27	185.57074	246.90245	-1697.8369
257	1.275	185.56876	246.89079	-1697.8354
258	1.28	185.56506	246.89742	-1697.8335
259	1.285	185.5609	246.89938	-1697.8341
260	1.29	185.55241	246.89206	-1697.8363
261	1.295	185.55727	246.8896	-1697.8323
262	1.3	185.55516	246.89497	-1697.8361
263	1.305	185.55093	246.89742	-1697.8367
264	1.31	185.55101	246.88782	-1697.8311
265	1.315	185.55946	246.89275	-1697.8314
266	1.32	185.54645	246.89177	-1697.8273
267	1.325	185.55374	246.89111	-1697.8291
268	1.33	185.549	246.89326	-1697.8328
269	1.335	185.54529	246.89357	-1697.8276
270	1.34	185.55197	246.89691	-1697.832
271	1.345	185.55428	246.89383	-1697.8265
272	1.35	185.54037	246.88826	-1697.8284
273	1.355	185.54427	246.89203	-1697.8264
274	1.36	185.53865	246.89433	-1697.8292
275	1.365	185.54207	246.89348	-1697.8364
276	1.37	185.53732	246.89496	-1697.8354
277	1.375	185.54637	246.89787	-1697.8341
278	1.38	185.5284	246.88927	-1697.8292
279	1.385	185.52371	246.88809	-1697.8323
280	1.39	185.53102	246.88922	-1697.8405
281	1.395	185.52557	246.89067	-1697.827
282	1.4	185.52763	246.89792	-1697.8286
283	1.405	185.52357	246.89745	-1697.8324
284	1.41	185.51813	246.89374	-1697.8311
285	1.415	185.51326	246.89793	-1697.8311
286	1.42	185.51169	246.89638	-1697.8379
287	1.425	185.51256	246.90283	-1697.8385
288	1.43	185.50986	246.90462	-1697.8429
289	1.435	185.50473	246.90657	-1697.8478
290	1.44	185.50693	246.90779	-1697.8544
291	1.445	185.50853	246.90436	-1697.8418
292	1.45	185.50859	246.90088	-1697.8416
293	1.455	185.50558	246.89468	-1697.8292
294	1.46	185.49347	246.88963	-1697.8392
